<?xml version="1.0" encoding="UTF-8" standalone="no"?>
<svg
   data-name="Layer 1"
   width="71"
   height="71"
   version="1.1"
   id="svg1"
   sodipodi:docname="logo-white.svg"
   inkscape:version="1.4 (e7c3feb1, 2024-10-09)"
   xmlns:inkscape="http://www.inkscape.org/namespaces/inkscape"
   xmlns:sodipodi="http://sodipodi.sourceforge.net/DTD/sodipodi-0.dtd"
   xmlns="http://www.w3.org/2000/svg"
   xmlns:svg="http://www.w3.org/2000/svg">
  <sodipodi:namedview
     id="namedview1"
     pagecolor="#ffffff"
     bordercolor="#000000"
     borderopacity="0.25"
     inkscape:showpageshadow="2"
     inkscape:pageopacity="0.0"
     inkscape:pagecheckerboard="0"
     inkscape:deskcolor="#d1d1d1"
     inkscape:zoom="2.2"
     inkscape:cx="78.863636"
     inkscape:cy="76.136364"
     inkscape:window-width="1472"
     inkscape:window-height="890"
     inkscape:window-x="0"
     inkscape:window-y="38"
     inkscape:window-maximized="1"
     inkscape:current-layer="svg1" />
  <rect
     id="backgroundrect"
     width="100%"
     height="100%"
     x="0.00026819846"
     y="0.00041381607"
     fill="none"
     stroke="none" />
  <defs
     id="defs1">
    <style
       id="style1">.cls-1,.cls-2,.cls-3{fill:#fff}</style>
  </defs>
  <path
     class="cls-2"
     d="m 66.775723,28.481414 a 103.41,103.41 0 0 0 -1.06,-22.5400002 4.42,4.42 0 0 0 -3.58,-3.66 109.48,109.48 0 0 0 -22.79,-2.27999998 207.69,207.69 0 0 0 -1.38,24.36000018 v 3.89 l 0.91,0.09 c 0.44,0 0.61,0.28 0.67,0.72 0.06,0.44 0.12,1 0.12,1 0,0 16.47,-0.12 27.11,-1.58 z"
     id="svg_3" />
  <path
     class="cls-2"
     d="m 33.675723,36.211414 -0.92,-0.12 c -0.44,-0.05 -0.62,-0.28 -0.67,-0.73 -0.05,-0.45 -0.12,-1 -0.12,-1 a 178.53,178.53 0 0 0 -26.2000003,1.51 c 1.43,8.23 10.8400003,26.84 26.0000003,34.8 0.75,-6.16 1.93,-21.19 1.93,-30.84 v -3.68 z"
     id="svg_4" />
  <path
     class="cls-2"
     d="m 39.715723,34.421414 a 179.49,179.49 0 0 1 26.27,1.51 c -1.44,8.23 -10.84,26.84 -26,34.8 -0.75,-6.16 -2,-21.19 -2,-30.84 v -3.68 l 0.88,-0.08 c 0.43,-0.05 0.61,-0.28 0.67,-0.73 0.06,-0.45 0.11,-1 0.11,-1 z"
     id="svg_5" />
  <path
     class="cls-3"
     d="m 19.675723,17.761414 a 0.29,0.29 0 0 0 0,0.26 0.76,0.76 0 0 0 0.3,-0.1 1.81,1.81 0 0 0 0.23,-0.18 4.53,4.53 0 0 0 -0.53,0.02 z"
     id="svg_6" />
  <path
     class="cls-2"
     d="m 19.525723,14.091414 -14.8300003,14.39 a 194.4,194.4 0 0 0 27.1400003,1.61 h 0.14 c 0,0 0.06,-0.49 0.11,-1 0.05,-0.51 0.23,-0.68 0.67,-0.72 l 0.92,-0.09 z m -1.29,4.23 c -0.07,0.24 -0.06,0.55 0.27,0.55 a 2.32,2.32 0 0 0 0.8,-0.27 v 0.09 a 2.7,2.7 0 0 1 -1.14,0.51 0.31,0.31 0 0 1 -0.35,-0.31 c 0.04,-0.25 0.22,-0.33 0.42,-0.57 z m 4.83,3.45 c 0,0.26 -0.4,0.41 -0.47,0.53 a 0.34,0.34 0 0 0 -0.09,0.15 c -0.05,-0.17 0,-0.3 0,-0.42 0,-0.12 -0.1,-0.2 -0.23,-0.2 a 0.89,0.89 0 0 0 -0.38,1.26 0.69,0.69 0 0 1 0.13,-0.52 0.36,0.36 0 0 0 0.08,-0.24 0.86,0.86 0 0 1 0.13,0.44 c 0,0.34 -0.25,0.41 -0.14,0.67 0,0.07 0.05,0.12 0.08,0.21 a 1,1 0 0 1 0,-0.31 c 0,-0.08 0.15,-0.24 0.16,-0.3 a 0.44,0.44 0 0 0 0,-0.2 0.65,0.65 0 0 1 0.18,0.47 0.85,0.85 0 0 1 -0.15,0.48 1,1 0 0 0 -0.08,0.27 c -0.07,0.56 -0.35,0.83 -0.71,0.83 a 1,1 0 0 1 -0.44,-0.1 c 0,0.72 -0.83,0.67 -0.83,1.14 a 0.62,0.62 0 0 0 0.18,0.38 3.31,3.31 0 0 1 0.55,0.37 0.7,0.7 0 0 0 -0.48,0.19 c 0.3,0.15 0.29,0.32 0.33,0.54 -0.29,-0.14 -0.43,-0.06 -0.5,0 -0.07,0.06 0,0.22 -0.15,0.36 0,-0.11 -0.12,-0.21 -0.25,-0.21 a 0.68,0.68 0 0 0 -0.39,0.3 0.27,0.27 0 0 1 -0.28,0.3 0.38,0.38 0 0 0 -0.1,0.35 c -0.11,-0.11 -0.13,-0.18 -0.09,-0.38 -0.13,0 -0.11,-0.17 -0.07,-0.26 -0.08,0.07 -0.15,0.16 -0.33,0.07 a 0.34,0.34 0 0 0 -0.17,0.26 c 0,-0.3 0,-0.4 0.1,-0.44 a 0.24,0.24 0 0 1 0.13,-0.27 v -0.06 a 0.25,0.25 0 0 1 -0.22,-0.1 c -0.1,0 -0.23,0.1 -0.25,0.16 a 0.45,0.45 0 0 1 0.12,-0.4 c 0.11,-0.23 0.32,-0.27 0.45,-0.14 a 0.7,0.7 0 0 0 0.42,0.15 0.52,0.52 0 0 0 0.37,-0.2 0.38,0.38 0 0 0 0.07,-0.11 c 0,-0.09 0.11,-0.19 -0.07,-0.42 -0.18,-0.23 -0.49,-0.52 -0.5,-0.76 a 1,1 0 0 1 0.36,-0.8 h -0.14 c -0.26,0 -0.28,-0.16 -0.54,-0.16 a 0.34,0.34 0 0 0 -0.31,0.36 0.5,0.5 0 0 0 0.09,0.31 0.53,0.53 0 0 1 0.09,0.38 0.41,0.41 0 0 0 -0.55,-0.06 0.53,0.53 0 0 1 -0.23,0.36 0.37,0.37 0 0 0 -0.63,-0.14 c 0,0.07 -0.06,0.22 -0.26,0.22 h -0.17 a 0.64,0.64 0 0 0 -0.18,0.26 0.44,0.44 0 0 1 0.07,-0.36 c 0,-0.07 0,-0.24 0.08,-0.29 a 0.3,0.3 0 0 1 -0.42,0 c -0.08,0 -0.15,0.06 -0.23,0.22 a 0.57,0.57 0 0 1 0.17,-0.4 c 0,-0.12 0.17,-0.23 0.35,-0.19 v -0.06 c 0,-0.06 0,0 0,0 0,0 -0.22,0 -0.21,-0.24 a 0.27,0.27 0 0 0 -0.26,0.07 0.37,0.37 0 0 1 0.33,-0.24 c 0,-0.08 0.16,-0.09 0.23,-0.09 a 0.21,0.21 0 0 1 0.22,0.14 0.75,0.75 0 0 0 0.67,0.29 0.25,0.25 0 0 0 0.25,-0.26 c 0,-0.16 -0.26,-0.62 -0.26,-0.83 a 0.84,0.84 0 0 1 0.62,-0.6 2.4,2.4 0 0 1 1.11,0.31 c 0.25,0 0.28,0 0.31,-0.08 -0.36,-0.45 -0.58,-0.44 -0.93,-0.67 a 0.76,0.76 0 0 1 -0.29,-0.51 c -0.21,0.05 -0.41,0.33 -0.51,0.51 a 0.27,0.27 0 0 0 -0.21,-0.14 c -0.17,0 -0.29,0.22 -0.37,0.41 a 0.46,0.46 0 0 0 -0.43,-0.41 c -0.14,0 -0.3,0 -0.34,0.14 a 0.32,0.32 0 0 1 -0.37,0.18 c -0.08,0 -0.14,0.07 -0.19,0.3 -0.07,-0.29 0,-0.34 0,-0.41 a 0.28,0.28 0 0 1 0.07,-0.3 c -0.11,0 -0.28,0 -0.32,-0.07 -0.04,-0.07 -0.17,0 -0.27,0.17 a 0.46,0.46 0 0 1 0.24,-0.38 0.32,0.32 0 0 1 0.3,-0.15 v -0.05 a 0.26,0.26 0 0 1 -0.13,-0.25 c -0.09,-0.11 -0.2,0 -0.28,0 0.15,-0.16 0.33,-0.22 0.44,-0.15 0.11,0.07 0.35,0 0.38,0.18 0.03,0.18 0.28,0.19 0.55,0.19 0.59,0 1.52,-0.55 1.45,-1 a 0.86,0.86 0 0 0 -0.26,0 c -0.32,0 -0.71,0.39 -1,0.4 0.15,-0.18 0,-0.35 0.14,-0.48 a 3.17,3.17 0 0 1 -0.67,0.07 0.56,0.56 0 0 0 0.19,-0.37 c 0,-0.08 0,-0.24 -0.35,-0.24 a 0.77,0.77 0 0 1 -0.2,0 c -0.08,0 -0.31,0 -0.31,-0.2 a 0.33,0.33 0 0 0 -0.32,0.1 0.59,0.59 0 0 1 0.33,-0.3 0.21,0.21 0 0 1 0.19,-0.13 v -0.07 c 0,-0.07 -0.27,-0.06 -0.27,-0.25 0,-0.19 -0.14,-0.1 -0.32,-0.05 0.23,-0.17 0.31,-0.14 0.39,-0.12 a 0.27,0.27 0 0 1 0.36,0 0.33,0.33 0 0 1 0,-0.3 c 0,-0.13 -0.07,-0.17 -0.19,-0.2 a 0.51,0.51 0 0 1 0.45,0.16 0.28,0.28 0 0 1 0.24,0.24 c 0,0.24 -0.25,0.41 0.24,0.67 a 6.28,6.28 0 0 0 0.59,0.22 4.25,4.25 0 0 0 0.6,0.16 c -0.08,-0.13 0,-0.27 -0.19,-0.4 a 2.08,2.08 0 0 1 0.5,0.07 c 0,-0.19 0,-0.19 -0.11,-0.31 h 0.35 c 0.56,0.06 0.57,-0.22 0.68,-0.58 a 1.66,1.66 0 0 0 -0.82,0.26 1.29,1.29 0 0 0 0,-0.28 0.19,0.19 0 0 1 0.2,-0.2 h 0.18 c 0.12,0 0.29,-0.14 0.21,-0.42 -0.08,-0.28 -0.14,-0.21 -0.25,-0.18 l -0.23,0.07 a 0.22,0.22 0 0 0 -0.13,0.21 l -0.07,-0.2 -0.07,-0.15 v -0.06 a 0.2,0.2 0 0 1 0.15,-0.28 l 0.36,-0.09 c 0.2,-0.06 0.26,-0.13 0.3,-0.24 0.04,-0.11 0.07,-0.15 0.25,-0.15 h 0.47 c 0.28,0 0.58,-0.22 0.48,-0.46 0.19,0 0.27,0.34 0.22,0.46 a 1.21,1.21 0 0 0 0.46,-0.12 0.8,0.8 0 0 1 -0.28,0.53 0.88,0.88 0 0 0 0.48,-0.08 1.23,1.23 0 0 1 -0.32,0.54 0.79,0.79 0 0 1 0.54,0.54 c -0.2,-0.08 -0.31,0 -0.48,0 a 5.07,5.07 0 0 1 0.54,0.98 3.47,3.47 0 0 0 -0.43,-0.21 c 0.15,0.34 -0.06,0.67 0,0.85 a 0.8,0.8 0 0 1 -0.3,-0.23 1.32,1.32 0 0 0 -0.13,0.75 1.64,1.64 0 0 0 -0.31,-0.22 1.1,1.1 0 0 0 -0.21,0.79 3.54,3.54 0 0 0 0.44,1.53 2.87,2.87 0 0 1 0.29,0.83 0.51,0.51 0 0 0 0.49,0.43 0.47,0.47 0 0 0 0.43,-0.48 c 0,-0.47 -0.58,-0.77 -0.58,-1.61 0,-0.55 0.43,-0.82 0.44,-1.17 0.01,-0.35 -0.28,-0.12 -0.49,-0.26 0.27,0 0.43,-0.35 0.67,-0.34 0.24,0.01 0.27,0.13 0.28,0.24 a 0.71,0.71 0 0 1 -0.12,0.38 1,1 0 0 0 0.35,-0.67 c 0,-0.23 -0.33,-0.49 -0.25,-0.94 v -0.09 c 0.09,0.5 0.81,0.63 0.81,1.13 0,0.5 -0.41,0.39 -0.64,0.71 0.26,-0.07 0.55,-0.02 0.55,0.26 z"
     id="svg_7" />
  <path
     class="cls-2"
     d="M 32.315723,0.00141382 A 113.84,113.84 0 0 0 9.5157227,2.2814138 a 4.39,4.39 0 0 0 -3.53,3.66 95.68,95.68 0 0 0 -1.39,19.6400002 c 1.47,-1.4 15.0000003,-14.57 15.0000003,-14.57 l 14.1,14.08 a 221.15,221.15 0 0 0 -1.38,-25.09000018 z m -21,4.54999998 c -0.06,0.24 -0.06,0.55 0.28,0.55 a 2.53,2.53 0 0 0 0.82,-0.27 v 0.09 a 2.87,2.87 0 0 1 -1.16,0.52 c -0.27,0 -0.37,-0.16 -0.37,-0.32 0,-0.16 0.25,-0.33 0.45,-0.57 z m 4.93,3.54 c 0,0.26 -0.39,0.41 -0.47,0.53 -0.08,0.12 -0.08,0.09 -0.09,0.16 v -0.43 c 0,-0.12 -0.1,-0.2 -0.24,-0.2 -0.14,0 -0.76,0.5 -0.43,1.31 a 0.74,0.74 0 0 1 0.14,-0.53 0.38,0.38 0 0 0 0.08,-0.24 0.78,0.78 0 0 1 0.13,0.45 c 0,0.34 -0.25,0.42 -0.13,0.67 a 1.52,1.52 0 0 0 0.08,0.2200002 1.3,1.3 0 0 1 0,-0.3100002 2.88,2.88 0 0 1 0.17,-0.31 0.37,0.37 0 0 0 0,-0.21 0.66,0.66 0 0 1 0.19,0.49 1,1 0 0 1 -0.15,0.4800002 0.79,0.79 0 0 0 -0.08,0.27 c -0.08,0.58 -0.36,0.85 -0.73,0.85 a 1.06,1.06 0 0 1 -0.48,-0.2 c 0,0.73 -0.84,0.67 -0.84,1.16 a 0.62,0.62 0 0 0 0.18,0.38 c 0.09,0.09 0.43,0.22 0.56,0.38 a 0.75,0.75 0 0 0 -0.49,0.2 c 0.31,0.15 0.3,0.32 0.34,0.55 -0.3,-0.15 -0.44,-0.06 -0.51,0 -0.07,0.06 -0.05,0.22 -0.15,0.37 0,-0.12 -0.13,-0.22 -0.25,-0.22 a 0.64,0.64 0 0 0 -0.4,0.3 0.28,0.28 0 0 1 -0.29,0.31 0.38,0.38 0 0 0 -0.1,0.35 c -0.11,-0.11 -0.13,-0.18 -0.09,-0.38 -0.13,-0.06 -0.12,-0.17 -0.08,-0.27 a 0.24,0.24 0 0 1 -0.33,0.07 0.34,0.34 0 0 0 -0.17,0.27 c 0,-0.31 0,-0.41 0.1,-0.45 a 0.22,0.22 0 0 1 0.13,-0.27 0.35,0.35 0 0 0 0,-0.06 0.23,0.23 0 0 1 -0.22,-0.11 0.29,0.29 0 0 0 -0.26,0.17 0.47,0.47 0 0 1 0.24,-0.39 c 0.11,-0.22 0.33,-0.26 0.46,-0.13 a 0.68,0.68 0 0 0 0.42,0.15 0.57,0.57 0 0 0 0.38,-0.2 0.52,0.52 0 0 0 0.07,-0.12 c 0,-0.09 0.11,-0.19 -0.07,-0.42 -0.18,-0.23 -0.5,-0.53 -0.51,-0.78 a 1,1 0 0 1 0.37,-0.82 h -0.15 c -0.26,0 -0.28,-0.16 -0.55,-0.16 a 0.35,0.35 0 0 0 -0.31,0.37 0.48,0.48 0 0 0 0.09,0.31 0.57,0.57 0 0 1 0.09,0.39 0.4,0.4 0 0 0 -0.55,0 0.61,0.61 0 0 1 -0.24,0.36 0.38,0.38 0 0 0 -0.64,-0.14 c 0,0.07 -0.06,0.22 -0.27,0.22 h -0.17 a 0.61,0.61 0 0 0 -0.1800003,0.27 0.44,0.44 0 0 1 0.07,-0.37 c 0,-0.07 0,-0.25 0.08,-0.3 a 0.31,0.31 0 0 1 -0.43,0 c -0.07,0 -0.15,0.07 -0.23,0.23 a 0.54,0.54 0 0 1 0.17,-0.41 c 0,-0.13 0.18,-0.23 0.35,-0.2 0.1700003,0.03 0,0 0,-0.06 0,-0.06 -0.22,0 -0.2,-0.25 a 0.32,0.32 0 0 0 -0.28,0.08 0.4,0.4 0 0 1 0.34,-0.25 c 0,-0.08 0.17,-0.09 0.24,-0.09 a 0.21,0.21 0 0 1 0.1800003,-0.04 0.76,0.76 0 0 0 0.69,0.29 0.25,0.25 0 0 0 0.25,-0.27 c 0,-0.16 -0.27,-0.62 -0.27,-0.83 a 0.86,0.86 0 0 1 0.64,-0.6200002 c 0.78,0 1,0.32 1.13,0.32 0.13,0 0.28,0 0.32,-0.09 -0.37,-0.45 -0.61,-0.44 -1,-0.68 a 0.76,0.76 0 0 1 -0.29,-0.51 c -0.21,0.05 -0.42,0.34 -0.53,0.52 a 0.24,0.24 0 0 0 -0.21,-0.15 c -0.17,0 -0.29,0.23 -0.38,0.42 -0.05,-0.22 -0.18,-0.42 -0.43,-0.42 a 0.39,0.39 0 0 0 -0.3400003,0.15 0.32,0.32 0 0 1 -0.38,0.17 0.39,0.39 0 0 0 -0.2,0.31 c -0.07,-0.29 0,-0.34 0,-0.42 a 0.29,0.29 0 0 1 0.08,-0.3 c -0.12,0 -0.28,0 -0.33,-0.07 -0.05,-0.07 -0.17,0 -0.28,0.17 a 0.46,0.46 0 0 1 0.25,-0.38 c 0,-0.11 0.19,-0.15 0.31,-0.15 0.12,0 0,0 0,-0.06 a 0.26,0.26 0 0 1 -0.12,-0.26 c -0.1,-0.11 -0.2,0 -0.29,0 0.15,-0.15 0.33,-0.21 0.45,-0.14 0.26,-0.09 0.36,0 0.38,0.18 0.02,0.18 0.29,0.19 0.5700003,0.19 0.59,0 1.54,-0.55 1.47,-1 a 0.68,0.68 0 0 0 -0.27,0 c -0.32,0 -0.71,0.39 -1,0.4 0.16,-0.18 0.06,-0.36 0.15,-0.49 a 3.14,3.14 0 0 1 -0.6800003,0.08 0.6,0.6 0 0 0 0.1900003,-0.38 c 0,-0.08 0,-0.25 -0.3500003,-0.25 a 0.87,0.87 0 0 1 -0.21,0 c -0.08,0 -0.31,0 -0.31,-0.2 a 0.35,0.35 0 0 0 -0.33,0.1 0.61,0.61 0 0 1 0.34,-0.3 0.25,0.25 0 0 1 0.19,-0.14 v -0.06 c 0,-0.06 -0.28,-0.06 -0.27,-0.26 0.01,-0.2 -0.14,-0.1 -0.33,0 0.23,-0.18 0.32,-0.15 0.39,-0.12 a 0.26,0.26 0 0 1 0.37,0 v -0.05 a 0.35,0.35 0 0 1 0,-0.31 c 0,-0.14 -0.06,-0.18 -0.19,-0.21 a 0.53,0.53 0 0 1 0.45,0.17 0.28,0.28 0 0 1 0.2500003,0.24 c 0,0.25 -0.2600003,0.42 0.25,0.68 a 4,4 0 0 0 0.6,0.23 4.31,4.31 0 0 0 0.61,0.16 c -0.09,-0.13 0,-0.27 -0.19,-0.41 a 2.09,2.09 0 0 1 0.5,0.08 c 0,-0.2 0,-0.2 -0.11,-0.32 h 0.35 c 0.58,0.06 0.59,-0.23 0.7,-0.59 a 1.65,1.65 0 0 0 -0.84,0.27 0.94,0.94 0 0 0 0,-0.29 0.19,0.19 0 0 1 0.2,-0.2 h 0.18 c 0.12,0 0.3,-0.14 0.22,-0.42 a 0.22,0.22 0 0 0 -0.26,-0.18 1.83,1.83 0 0 0 -0.23,0.07 c -0.1,0 -0.13,0.11 -0.14,0.21 0,-0.05 0,-0.17 -0.07,-0.21 a 0.69,0.69 0 0 1 -0.06,-0.14 v -0.07 a 0.2,0.2 0 0 1 0.16,-0.28 l 0.36,-0.09 a 0.39,0.39 0 0 0 0.3,-0.24 c 0.05,-0.11 0.08,-0.16 0.26,-0.16 h 0.36 c 0.28,0 0.59,-0.23 0.49,-0.47 0.19,0 0.27,0.35 0.22,0.47 a 1.21,1.21 0 0 0 0.46,-0.12 0.71,0.71 0 0 1 -0.28,0.53 0.84,0.84 0 0 0 0.49,-0.07 1.38,1.38 0 0 1 -0.32,0.55 0.78,0.78 0 0 1 0.54,0.55 c -0.2,-0.09 -0.31,0 -0.48,0 a 5.09,5.09 0 0 1 0.58,1.19 4.37,4.37 0 0 0 -0.43,-0.21 c 0.15,0.35 -0.07,0.69 0,0.87 a 0.93,0.93 0 0 1 -0.3,-0.24 1.46,1.46 0 0 0 -0.13,0.76 2.28,2.28 0 0 0 -0.31,-0.22 1.1,1.1 0 0 0 -0.22,0.8 3.58,3.58 0 0 0 0.45,1.56 2.93,2.93 0 0 1 0.29,0.8500002 0.52,0.52 0 0 0 0.5,0.43 0.47,0.47 0 0 0 0.44,-0.48 c 0,-0.48 -0.59,-0.7900002 -0.59,-1.6400002 0,-0.56 0.43,-0.84 0.44,-1.19 0.01,-0.35 -0.27,-0.12 -0.49,-0.26 0.28,-0.06 0.44,-0.36 0.69,-0.35 a 0.24,0.24 0 0 1 0.27,0.24 0.75,0.75 0 0 1 -0.11,0.39 1,1 0 0 0 0.34,-0.68 c 0,-0.24 -0.33,-0.51 -0.24,-1 a 0.3,0.3 0 0 1 0,-0.09 c 0.1,0.51 0.83,0.64 0.83,1.15 0,0.51 -0.41,0.39 -0.65,0.73 0.31,-0.11 0.6,-0.06 0.6,0.26 z m 8.89,-4.49 c -0.07,0.25 -0.07,0.57 0.29,0.57 a 2.63,2.63 0 0 0 0.85,-0.28 v 0.09 a 3,3 0 0 1 -1.21,0.54 0.32,0.32 0 0 1 -0.38,-0.33 c 0.08,-0.26 0.28,-0.35 0.45,-0.59 z m 5.12,3.65 c 0,0.27 -0.42,0.43 -0.5,0.56 a 0.43,0.43 0 0 0 -0.09,0.16 c -0.06,-0.18 0,-0.32 0,-0.45 0,-0.13 -0.1,-0.21 -0.25,-0.21 a 1,1 0 0 0 -0.44,1.37 0.76,0.76 0 0 1 0.13,-0.55 0.35,0.35 0 0 0 0.09,-0.25 0.86,0.86 0 0 1 0.14,0.47 c 0,0.36 -0.26,0.43 -0.14,0.7 a 2.16,2.16 0 0 0 0.08,0.23 1,1 0 0 1 0,-0.33 c 0,-0.09 0.16,-0.25 0.17,-0.32 a 0.4,0.4 0 0 0 0,-0.22 0.71,0.71 0 0 1 0.19,0.51 1,1 0 0 1 -0.15,0.5 0.9,0.9 0 0 0 -0.09,0.29 c -0.08,0.6000002 -0.37,0.8800002 -0.76,0.8800002 a 1,1 0 0 1 -0.58,-0.14 c 0,0.77 -0.87,0.71 -0.87,1.21 a 0.67,0.67 0 0 0 0.18,0.4 c 0.1,0.09 0.45,0.22 0.58,0.4 a 0.71,0.71 0 0 0 -0.5,0.2 c 0.31,0.16 0.3,0.34 0.34,0.57 -0.31,-0.15 -0.45,-0.06 -0.53,0 -0.08,0.06 0,0.23 -0.15,0.39 0,-0.12 -0.13,-0.23 -0.27,-0.23 a 0.68,0.68 0 0 0 -0.41,0.32 0.3,0.3 0 0 1 -0.3,0.32 0.37,0.37 0 0 0 -0.1,0.37 c -0.12,-0.12 -0.14,-0.19 -0.1,-0.4 -0.14,-0.06 -0.12,-0.18 -0.08,-0.29 a 0.27,0.27 0 0 1 -0.35,0.07 0.4,0.4 0 0 0 -0.18,0.28 c 0,-0.32 0,-0.43 0.11,-0.47 a 0.23,0.23 0 0 1 0.14,-0.28 0.14,0.14 0 0 0 0,-0.07 0.26,0.26 0 0 1 -0.23,-0.11 c -0.1,0 -0.24,0.11 -0.27,0.18 a 0.47,0.47 0 0 1 0.25,-0.4 c 0.12,-0.24 0.35,-0.28 0.48,-0.14 a 0.74,0.74 0 0 0 0.44,0.15 0.56,0.56 0 0 0 0.4,-0.21 0.52,0.52 0 0 0 0.07,-0.12 c 0,-0.09 0.12,-0.2 -0.07,-0.44 -0.19,-0.24 -0.52,-0.55 -0.53,-0.81 a 1,1 0 0 1 0.38,-0.85 h -0.15 c -0.27,0 -0.3,-0.17 -0.58,-0.17 a 0.36,0.36 0 0 0 -0.32,0.38 0.52,0.52 0 0 0 0.09,0.33 0.5,0.5 0 0 1 0.09,0.4 0.42,0.42 0 0 0 -0.57,0 0.63,0.63 0 0 1 -0.25,0.38 0.39,0.39 0 0 0 -0.67,-0.15 c 0,0.07 -0.06,0.23 -0.27,0.23 -0.21,0 -0.12,0 -0.18,-0.05 a 0.54,0.54 0 0 0 -0.19,0.28 0.46,0.46 0 0 1 0.08,-0.39 c 0,-0.07 0,-0.26 0.08,-0.31 v -0.05 a 0.31,0.31 0 0 1 -0.44,0 c -0.08,0 -0.16,0.07 -0.24,0.24 a 0.56,0.56 0 0 1 0.17,-0.52 c 0,-0.13 0.18,-0.24 0.36,-0.2 v -0.07 c 0,-0.07 0,0 0,0 0,0 -0.23,0 -0.22,-0.26 a 0.26,0.26 0 0 0 -0.28,0.08 0.39,0.39 0 0 1 0.35,-0.26 c 0,-0.08 0.17,-0.09 0.24,-0.09 a 0.23,0.23 0 0 1 0.24,0.14 0.78,0.78 0 0 0 0.71,0.31 0.27,0.27 0 0 0 0.27,-0.28 c 0,-0.17 -0.29,-0.6500002 -0.29,-0.8700002 a 0.9,0.9 0 0 1 0.67,-0.65 c 0.81,0 1,0.34 1.17,0.34 0.17,0 0.29,-0.05 0.33,-0.09 -0.38,-0.47 -0.62,-0.46 -1,-0.71 a 0.8,0.8 0 0 1 -0.3,-0.54 c -0.23,0.05 -0.45,0.35 -0.55,0.54 a 0.26,0.26 0 0 0 -0.22,-0.15 c -0.18,0 -0.31,0.24 -0.4,0.44 0,-0.23 -0.19,-0.44 -0.45,-0.44 a 0.38,0.38 0 0 0 -0.35,0.16 0.36,0.36 0 0 1 -0.4,0.18 c -0.08,0 -0.15,0.07 -0.21,0.31 -0.07,-0.3 0,-0.35 0,-0.43 a 0.32,0.32 0 0 1 0.07,-0.32 c -0.12,0 -0.29,0 -0.34,-0.07 -0.05,-0.07 -0.17,0 -0.29,0.18 a 0.51,0.51 0 0 1 0.26,-0.4 c 0,-0.11 0.2,-0.16 0.32,-0.16 v -0.06 a 0.25,0.25 0 0 1 -0.13,-0.26 c -0.1,-0.12 -0.21,-0.05 -0.3,0 0.16,-0.17 0.34,-0.23 0.47,-0.16 0.27,-0.09 0.37,0 0.39,0.19 0.02,0.19 0.31,0.2 0.59,0.2 0.62,0 1.61,-0.58 1.54,-1 a 0.75,0.75 0 0 0 -0.28,0 c -0.33,0 -0.75,0.42 -1.07,0.42 0.16,-0.18 0.06,-0.37 0.15,-0.5 a 4.5,4.5 0 0 1 -0.71,0.07 0.59,0.59 0 0 0 0.2,-0.39 c 0,-0.09 0,-0.25 -0.37,-0.25 a 0.87,0.87 0 0 1 -0.21,0 c -0.09,0 -0.33,0 -0.33,-0.22 a 0.4,0.4 0 0 0 -0.34,0.11 0.63,0.63 0 0 1 0.35,-0.32 0.26,0.26 0 0 1 0.21,-0.14 0.56,0.56 0 0 0 0,-0.07 c -0.13,0 -0.29,-0.06 -0.28,-0.27 0.01,-0.21 -0.15,-0.1 -0.35,0 0.25,-0.18 0.34,-0.15 0.42,-0.12 a 0.27,0.27 0 0 1 0.38,0 v -0.06 a 0.31,0.31 0 0 1 0,-0.31 c 0,-0.15 -0.07,-0.19 -0.21,-0.22 a 0.56,0.56 0 0 1 0.48,0.17 0.32,0.32 0 0 1 0.26,0.26 c 0,0.25 -0.27,0.43 0.25,0.7 a 4.92,4.92 0 0 0 0.63,0.24 3.82,3.82 0 0 0 0.63,0.17 c -0.09,-0.14 0,-0.28 -0.2,-0.43 a 2.26,2.26 0 0 1 0.53,0.08 c 0,-0.2 0,-0.2 -0.12,-0.33 h 0.37 c 0.6,0.06 0.61,-0.23 0.73,-0.61 a 1.73,1.73 0 0 0 -0.88,0.28 1,1 0 0 0 0,-0.3 0.2,0.2 0 0 1 0.21,-0.21 h 0.19 c 0.13,0 0.31,-0.15 0.23,-0.44 0,-0.14 -0.15,-0.23 -0.27,-0.19 -0.12,0.04 -0.11,0 -0.24,0.07 a 0.24,0.24 0 0 0 -0.15,0.22 c 0,0 -0.05,-0.18 -0.07,-0.21 l -0.07,-0.16 v -0.06 a 0.21,0.21 0 0 1 0.16,-0.3 l 0.38,-0.09 c 0.21,-0.06 0.27,-0.14 0.31,-0.25 0.04,-0.11 0.08,-0.16 0.27,-0.16 h 0.56 c 0.29,0 0.61,-0.23 0.5,-0.49 0.21,0 0.29,0.36 0.24,0.49 a 1.31,1.31 0 0 0 0.48,-0.12 0.72,0.72 0 0 1 -0.3,0.55 0.89,0.89 0 0 0 0.51,-0.07 1.32,1.32 0 0 1 -0.33,0.56 0.84,0.84 0 0 1 0.56,0.58 c -0.2,-0.09 -0.32,0 -0.5,0 a 5.41,5.41 0 0 1 0.61,1.25 2.7,2.7 0 0 0 -0.45,-0.22 c 0.16,0.36 -0.07,0.71 0,0.9 a 1,1 0 0 1 -0.31,-0.24 1.42,1.42 0 0 0 -0.14,0.79 2.09,2.09 0 0 0 -0.33,-0.24 1.21,1.21 0 0 0 -0.22,0.84 3.63,3.63 0 0 0 0.47,1.62 3.29,3.29 0 0 1 0.3,0.89 0.54,0.54 0 0 0 0.52,0.4500002 0.49,0.49 0 0 0 0.46,-0.5000002 c 0,-0.51 -0.61,-0.83 -0.61,-1.71 0,-0.58 0.44,-0.87 0.46,-1.24 0.02,-0.37 -0.29,-0.13 -0.52,-0.28 0.29,0 0.46,-0.37 0.72,-0.36 0.26,0.01 0.27,0.14 0.28,0.25 a 0.84,0.84 0 0 1 -0.11,0.41 1.14,1.14 0 0 0 0.36,-0.71 c 0,-0.25 -0.35,-0.53 -0.26,-1 a 0.56,0.56 0 0 1 0,-0.1 c 0.11,0.54 0.87,0.68 0.87,1.21 0,0.53 -0.43,0.4 -0.68,0.75 0.27,-0.23 0.58,-0.18 0.58,0.12 z"
     id="svg_8" />
  <path
     class="cls-3"
     d="m 12.805723,3.9814138 a 0.3,0.3 0 0 0 0,0.26 0.86,0.86 0 0 0 0.31,-0.1 c 0.09,-0.06 0.12,-0.11 0.23,-0.18 a 2.52,2.52 0 0 0 -0.54,0.02 z"
     id="svg_9" />
  <path
     class="cls-3"
     d="m 26.705723,3.0014138 a 0.34,0.34 0 0 0 0,0.28 1.22,1.22 0 0 0 0.32,-0.11 c 0.1,-0.06 0.13,-0.11 0.24,-0.19 a 2.67,2.67 0 0 0 -0.56,0.02 z"
     id="svg_10" />
</svg>
